<svg width="600" height="450" viewBox="0 0 600 450" fill="none" xmlns="http://www.w3.org/2000/svg">
<path d="M292.71 410.19L33.96 257.265C25.725 252.645 18.66 245.04 26.685 240.075L286.365 90.405C290.265 87.99 296.175 86.415 300.135 88.71L571.755 246.345C579.99 251.13 581.475 264.495 573.255 269.28L326.805 409.935C321.634 412.936 315.77 414.538 309.791 414.582C303.813 414.627 297.925 413.113 292.71 410.19Z" fill="url(#paint0_linear_2_14)"/>
<path opacity="0.32" d="M95.055 285.66C99.255 286.95 103.905 292.32 108.21 293.16C110.85 293.685 116.07 300.09 118.71 300.3L187.5 335.73L422.865 223.5L305.865 144.465L81.39 275.355C88.32 280.5 87 283.17 95.055 285.66Z" fill="url(#paint1_linear_2_14)"/>
<path d="M309.435 115.5V65.73C309.435 64.2394 309.815 62.7734 310.539 61.4703C311.262 60.1672 312.306 59.0699 313.571 58.2819C314.836 57.4939 316.282 57.0412 317.77 56.9665C319.259 56.8918 320.742 57.1976 322.08 57.855L411.24 101.655C414.728 103.368 417.666 106.024 419.721 109.323C421.776 112.621 422.865 116.429 422.865 120.315V175.905L309.435 115.5Z" fill="#5A3F2A"/>
<path d="M422.865 175.92V223.56L412.485 229.11V169.08" fill="#5A3F2A"/>
<path d="M303.405 118.5V69.555C303.406 68.0911 303.779 66.6516 304.49 65.3719C305.201 64.0922 306.226 63.0145 307.468 62.2403C308.711 61.4661 310.13 61.0208 311.592 60.9464C313.054 60.872 314.51 61.1709 315.825 61.815L403.395 104.835C406.82 106.519 409.705 109.129 411.722 112.369C413.74 115.608 414.809 119.348 414.81 123.165V177.765L303.405 118.5Z" fill="#835E41"/>
<path d="M412.485 229.11L402.315 223.935V183.75H412.485V229.11Z" fill="#835E41"/>
<path d="M215.745 302.82L412.485 203.31L414.81 177.765L411.345 175.92L215.745 273.96V302.82Z" fill="#5A3F2A"/>
<path d="M410.25 162.105V176.955L346.38 209.505L337.815 197.13" fill="#E0CFB3"/>
<path d="M249.18 146.235L310.38 112.125L407.445 157.785C408.279 158.173 408.987 158.788 409.488 159.56C409.989 160.331 410.263 161.228 410.279 162.148C410.294 163.068 410.051 163.974 409.576 164.762C409.102 165.55 408.415 166.189 407.595 166.605L351 195.645L249.18 146.235Z" fill="#F6F5F0"/>
<path d="M299.07 130.86C297.57 123.465 300.735 115.785 303.57 109.08C305.991 103.462 308.881 98.0576 312.21 92.925C315.75 87.33 319.89 81.39 327.21 81.09C330.323 81.1023 333.417 81.5775 336.39 82.5C351.86 86.4633 366.827 92.1804 381 99.54C391.74 105.24 405.45 111.435 405.15 126.54C404.925 137.895 387.15 170.25 375.45 171.945C369.81 172.77 362.625 168.75 357.675 166.59C348.495 162.585 339.57 157.995 330.675 153.3C323.76 149.64 317.025 145.95 309.99 142.515C306.03 140.58 301.395 137.82 299.745 133.515C299.448 132.65 299.222 131.762 299.07 130.86Z" fill="#D97706"/>
<path opacity="0.24" d="M371.43 141C367.112 149.778 364.5 159.297 363.735 169.05C369.06 171.105 373.275 172.245 375.51 171.93C383.955 170.7 390.615 158.925 394.56 152.43C401.1 141.675 409.77 127.995 402.36 115.365C389.595 108.795 375.78 132.465 371.43 141Z" fill="#351B0C"/>
<path d="M325.5 159.345C325.5 159.345 340.065 169.845 345.69 171.435C351.315 173.025 357.69 167.415 360.3 164.22C362.91 161.025 348.795 125.775 348.795 125.775L343.5 129.495L347.745 157.23C345.855 157.68 328.785 146.91 328.785 146.91" fill="#EF9A9A"/>
<path d="M334.68 135.72L326.46 141.375C326.46 141.375 320.46 136.515 320.46 131.925C320.46 127.335 333.135 130.515 333.135 130.515" fill="#EF9A9A"/>
<path d="M332.865 136.965L328.125 140.235L324.96 130.575L330.765 130.995L332.865 136.965Z" fill="#D17474"/>
<path d="M357.315 115.425C357.42 117.585 346.005 138.93 337.155 138.72C328.305 138.51 328.035 122.295 328.035 122.295C328.035 122.295 326.205 116.295 328.845 114.795C331.485 113.295 334.605 113.385 335.94 115.8C337.275 118.215 335.535 110.715 341.685 109.125C347.835 107.535 357 109.8 357.315 115.425Z" fill="#EF9A9A"/>
<path d="M340.5 119.145C340.08 119.595 347.43 125.145 348.195 125.565C350.94 127.065 355.515 128.475 357 124.53C358.365 120.9 359.745 115.095 357.315 109.98C353.445 101.82 343.065 97.395 332.73 102.48C322.395 107.565 313.8 119.94 317.34 127.98C320.88 136.02 329.52 133.335 329.52 133.335L333.42 126C333.42 126 328.41 120.315 333.51 119.505C337.305 118.89 336.825 123.075 336.825 123.075L340.5 119.145Z" fill="#351B0C"/>
<path d="M326.46 141.375C326.46 141.375 330.615 147.54 330.96 151.59C331.305 155.64 317.46 181.74 307.695 187.59C297.93 193.44 288.195 179.385 286.515 175.71C284.835 172.035 291.405 133.5 299.07 127.8C306.735 122.1 320.475 129 322.5 133.095" fill="#FF952C"/>
<path d="M325.275 179.55C310.05 161.1 299.49 150.42 269.535 151.68L248.835 141.33L130.335 199.395L223.5 258.33V283.08L355.5 216.48V194.67L325.275 179.55Z" fill="#D97706"/>
<path opacity="0.24" d="M355.515 194.67L223.5 258.33V283.08L355.515 216.48V194.67Z" fill="#351B0C"/>
<path d="M213.96 323.82L223.425 319.08V248.805C223.425 248.805 223.425 237.885 198.3 225.135C173.175 212.385 120 185.445 118.5 185.805C117 186.165 103.2 183.255 100.29 205.11C97.38 226.965 100.29 269.205 100.29 269.205L109.035 272.85L117.78 268.11V240.42L196.845 277.32L213.915 323.82" fill="#573C29"/>
<path d="M213.96 277.2V248.805C213.96 248.805 213.96 238.605 202.665 233.145C191.37 227.685 113.46 188.715 113.1 189.81C112.74 190.905 102.6 187.62 100.35 205.11V269.205L109.095 272.85V250.26L204.495 299.415V319.08L213.96 323.82V277.2Z" fill="#835E41"/>
<path opacity="0.32" d="M468.405 288C472.605 289.29 476.82 290.55 481.14 291.42C483.779 291.889 486.444 292.194 489.12 292.335L493.62 289.335L524.64 266.265L500.91 258.375L444.78 277.875C451.71 282.99 460.275 285.51 468.405 288Z" fill="url(#paint2_linear_2_14)"/>
<path d="M512.235 241.14C506.64 240.66 500.745 238.965 496.605 235.14V251.73C496.605 256.297 498.419 260.677 501.649 263.906C504.878 267.136 509.258 268.95 513.825 268.95C518.384 268.938 522.753 267.119 525.972 263.891C529.192 260.662 531 256.289 531 251.73V234.84C525.165 237.24 518.505 241.68 512.235 241.14Z" fill="#D97706"/>
<path d="M513.825 244.155C523.335 244.155 531.045 240.065 531.045 235.02C531.045 229.975 523.335 225.885 513.825 225.885C504.315 225.885 496.605 229.975 496.605 235.02C496.605 240.065 504.315 244.155 513.825 244.155Z" fill="#5ED18D"/>
<path d="M513.825 236.565C513.825 236.565 502.11 234.84 499.02 215.895C499.005 215.895 508.995 221.415 513.825 236.565Z" fill="#5ED18D"/>
<path d="M515.55 234.15C515.55 234.15 502.05 210.045 515.55 193.845C519.655 206.966 519.655 221.029 515.55 234.15Z" fill="#5ED18D"/>
<path d="M513.825 219C513.825 219 502.11 217.275 499.02 198.33C499.005 198.33 508.995 203.85 513.825 219Z" fill="#5ED18D"/>
<path d="M515.25 226.725C515.25 226.725 512.25 215.25 528.6 205.08C528.585 205.08 527.355 216.42 515.25 226.725Z" fill="#5ED18D"/>
<path d="M513.825 244.155C523.335 244.155 531.045 240.065 531.045 235.02C531.045 229.975 523.335 225.885 513.825 225.885C504.315 225.885 496.605 229.975 496.605 235.02C496.605 240.065 504.315 244.155 513.825 244.155Z" fill="#146666"/>
<path d="M513.825 236.565C513.825 236.565 502.11 234.84 499.02 215.895C499.005 215.895 508.995 221.415 513.825 236.565Z" fill="#5ED18D"/>
<path d="M515.55 234.15C515.55 234.15 502.05 210.045 515.55 193.845C519.655 206.966 519.655 221.029 515.55 234.15Z" fill="#5ED18D"/>
<path d="M513.825 219C513.825 219 502.11 217.275 499.02 198.33C499.005 198.33 508.995 203.85 513.825 219Z" fill="#5ED18D"/>
<path d="M515.25 226.725C515.25 226.725 512.25 215.25 528.6 205.08C528.585 205.08 527.355 216.42 515.25 226.725Z" fill="#5ED18D"/>
<path d="M294.93 140.535C294.015 140.97 288.48 157.8 289.71 161.43C290.94 165.06 312 180.675 312.51 181.5C313.02 182.325 315.09 192.315 317.505 193.92C319.92 195.525 325.26 196.005 327 195.24C328.74 194.475 330.51 190.275 329.79 189.075C329.07 187.875 321.57 180.585 320.49 178.74C319.41 176.895 302.385 157.635 302.925 156.24C303.465 154.845 305.79 144.45 305.79 144.45C305.79 144.45 297.78 139.185 294.93 140.535Z" fill="#EF9A9A"/>
<path d="M381.96 129.225C381.905 127.217 381.069 125.309 379.629 123.908C378.189 122.508 376.259 121.724 374.25 121.725C372.388 121.703 370.575 122.328 369.123 123.493C367.67 124.659 366.667 126.292 366.285 128.115C365.878 130.148 366.158 132.258 367.08 134.115C367.531 134.998 368.212 135.744 369.052 136.272C369.892 136.8 370.858 137.091 371.85 137.115C372.465 137.115 373.095 137.115 373.71 137.205C374.561 137.229 375.402 137.016 376.14 136.59C377.788 136.179 379.253 135.233 380.306 133.9C381.359 132.568 381.941 130.923 381.96 129.225Z" fill="white"/>
<path d="M423.105 195.57C422.797 195.276 422.471 195 422.13 194.745C422.523 191.342 421.768 187.905 419.985 184.98C417.375 180.675 412.485 176.295 407.145 176.55C404.176 176.783 401.41 178.147 399.417 180.361C397.424 182.574 396.357 185.468 396.435 188.445C396.456 188.872 396.501 189.298 396.57 189.72C395.094 190.315 393.729 191.157 392.535 192.21C390.38 194.265 389.012 197.009 388.668 199.966C388.325 202.924 389.027 205.908 390.654 208.402C392.28 210.896 394.728 212.743 397.573 213.621C400.418 214.499 403.481 214.354 406.23 213.21C406.545 213.075 406.83 212.91 407.13 212.76C409.521 214.3 412.358 214.996 415.19 214.737C418.022 214.479 420.687 213.282 422.76 211.335C423.824 210.326 424.677 209.116 425.271 207.776C425.864 206.435 426.186 204.99 426.218 203.524C426.251 202.059 425.992 200.601 425.458 199.236C424.923 197.87 424.124 196.625 423.105 195.57Z" fill="white"/>
<path d="M439.395 273.84C436.08 264.42 427.545 258.705 417.84 257.55C417.09 257.46 416.34 257.415 415.59 257.37C414.423 253.851 412.463 250.648 409.863 248.005C407.262 245.363 404.09 243.353 400.59 242.13C397.311 240.988 393.844 240.479 390.375 240.63C389.609 239.5 388.761 238.427 387.84 237.42C384.195 226.245 375.06 217.02 362.475 215.97C349.89 214.92 336 224.625 328.5 236.805L328.11 236.685C322.629 235.207 316.818 235.523 311.53 237.588C306.242 239.654 301.754 243.358 298.725 248.16C296.686 251.497 295.394 255.236 294.935 259.119C294.477 263.003 294.864 266.94 296.07 270.66C283.56 274.95 276.105 294.99 281.205 307.8C284.61 316.335 292.245 320.235 300.57 321.975C299.917 325.442 299.886 328.997 300.48 332.475C301.237 337.52 303.421 342.243 306.775 346.086C310.13 349.93 314.514 352.733 319.41 354.165C326.668 356.221 334.415 355.69 341.325 352.665C349.41 361.665 363.825 365.025 376.68 360.165C383.601 357.739 389.507 353.059 393.45 346.875C405.345 350.205 418.62 346.875 426.675 335.595C431.835 328.365 436.005 318.6 433.845 309.66C435.555 308 436.992 306.082 438.105 303.975C442.695 295.215 442.62 283.035 439.395 273.84Z" fill="white"/>
<path d="M310.905 292.935C304.005 297.315 297.405 307.215 304.215 314.415C312.84 323.565 306.465 346.395 339.315 346.08C372.165 345.765 367.35 333.18 386.835 333.51C397.845 333.69 424.11 328.83 419.46 312.51C417.96 307.5 413.055 305.97 408.96 303.825C403.272 301.002 397.356 298.664 391.275 296.835C373.825 291.007 355.552 288.019 337.155 287.985C328.785 288.09 319.635 288.135 312.075 292.26C311.665 292.47 311.275 292.695 310.905 292.935Z" fill="#FCCA4C"/>
<path d="M348.315 301.005L306 310.875L318.03 321.705L350.205 303.825L348.315 301.005Z" fill="url(#paint3_linear_2_14)"/>
<path d="M345.69 259.2V259.05C345.585 258.165 346.83 258.105 347.19 258.855V258.945C347.192 258.98 347.192 259.015 347.19 259.05C347.977 265.519 348.343 272.033 348.285 278.55C348.308 278.649 348.311 278.751 348.294 278.85C348.277 278.95 348.241 279.045 348.187 279.131C348.079 279.304 347.906 279.427 347.708 279.473C347.509 279.518 347.3 279.483 347.127 279.375C346.954 279.267 346.831 279.094 346.785 278.895C346.67 278.971 346.537 279.016 346.399 279.025C346.261 279.034 346.123 279.006 345.999 278.946C345.875 278.885 345.769 278.793 345.691 278.679C345.613 278.565 345.566 278.433 345.555 278.295C345.123 271.936 345.168 265.553 345.69 259.2Z" fill="#AB9E5A"/>
<path d="M330.96 273.945C330.96 273.84 331.095 273.78 331.155 273.69C331.132 273.525 331.175 273.358 331.275 273.225C334.92 268.02 341.775 270.225 344.91 274.605C345.796 275.596 346.352 276.839 346.5 278.16C346.605 279.06 345.3 279.105 345 278.31C344.911 278.218 344.849 278.104 344.82 277.98C344.565 277.02 344.127 276.118 343.53 275.325C342.314 274.259 340.822 273.557 339.225 273.3C337.215 272.895 333.435 272.49 332.235 274.71C331.8 275.55 330.495 274.8 330.96 273.945Z" fill="#575C1C"/>
<path d="M329.325 268.875C335.52 264.645 345.54 270.21 346.395 277.365C346.412 277.459 346.407 277.556 346.38 277.648C346.352 277.74 346.304 277.825 346.238 277.895C346.173 277.965 346.092 278.018 346.002 278.051C345.912 278.084 345.815 278.096 345.72 278.085C345.644 278.13 345.559 278.158 345.471 278.166C345.383 278.174 345.294 278.163 345.211 278.132C345.128 278.102 345.052 278.054 344.99 277.992C344.927 277.929 344.88 277.853 344.85 277.77C342.255 271.77 337.095 267.48 330.33 270.105H330.18H330.09C329.28 270.72 328.5 269.415 329.325 268.875Z" fill="#636D27"/>
<path d="M333 264.81L333.12 264.675C333.297 264.539 333.501 264.443 333.718 264.391C333.935 264.339 334.161 264.334 334.38 264.375C341.685 263.685 347.655 271.035 347.715 277.98C347.719 278.086 347.699 278.192 347.657 278.29C347.614 278.387 347.55 278.474 347.469 278.543C347.389 278.613 347.293 278.663 347.19 278.69C347.087 278.717 346.979 278.72 346.875 278.7C346.777 278.776 346.663 278.827 346.541 278.85C346.419 278.873 346.294 278.867 346.175 278.832C346.056 278.797 345.948 278.734 345.858 278.648C345.769 278.563 345.701 278.457 345.66 278.34C344.655 275.265 344.055 271.905 341.73 269.475C340.635 268.356 339.31 267.488 337.847 266.931C336.384 266.375 334.817 266.142 333.255 266.25C332.355 266.31 332.28 265.095 333 264.81Z" fill="#746927"/>
<path d="M336.615 261.375C336.765 261.289 336.94 261.257 337.11 261.285C344.475 262.545 347.61 269.385 347.76 276.285C347.76 276.45 347.76 276.615 347.76 276.78C347.76 277.755 346.26 277.74 346.26 276.78C346.257 276.745 346.257 276.71 346.26 276.675C346.26 276.57 346.26 276.45 346.26 276.345C345.765 270.27 342.615 264.63 336.405 262.965C336.194 262.937 336.003 262.827 335.874 262.658C335.744 262.489 335.687 262.276 335.715 262.065C335.743 261.854 335.853 261.663 336.022 261.534C336.191 261.404 336.404 261.347 336.615 261.375Z" fill="#7D7A33"/>
<path d="M347.13 259.2V259.05C347.235 258.165 345.99 258.105 345.63 258.855V258.945C345.628 258.98 345.628 259.015 345.63 259.05C344.843 265.519 344.478 272.033 344.535 278.55C344.489 278.749 344.524 278.958 344.633 279.131C344.741 279.304 344.914 279.427 345.112 279.473C345.311 279.518 345.52 279.483 345.693 279.375C345.866 279.267 345.989 279.094 346.035 278.895C346.15 278.971 346.283 279.016 346.421 279.025C346.559 279.034 346.697 279.006 346.821 278.946C346.945 278.885 347.051 278.793 347.129 278.679C347.207 278.565 347.254 278.433 347.265 278.295C347.697 271.936 347.652 265.553 347.13 259.2Z" fill="#AB9E5A"/>
<path d="M361.845 273.945C361.845 273.84 361.71 273.78 361.65 273.69C361.673 273.525 361.63 273.358 361.53 273.225C357.885 268.02 351.03 270.225 347.895 274.605C347.009 275.596 346.453 276.839 346.305 278.16C346.2 279.06 347.505 279.105 347.805 278.31C347.894 278.218 347.956 278.104 347.985 277.98C348.24 277.02 348.678 276.118 349.275 275.325C350.491 274.259 351.983 273.557 353.58 273.3C355.59 272.895 359.37 272.49 360.57 274.71C361.005 275.55 362.31 274.8 361.845 273.945Z" fill="#575C1C"/>
<path d="M363.495 268.875C357.3 264.645 347.28 270.21 346.425 277.365C346.408 277.459 346.413 277.556 346.441 277.648C346.468 277.74 346.516 277.825 346.582 277.895C346.647 277.965 346.728 278.018 346.818 278.051C346.908 278.084 347.005 278.096 347.1 278.085C347.176 278.13 347.261 278.158 347.349 278.166C347.437 278.174 347.526 278.163 347.609 278.132C347.692 278.102 347.768 278.054 347.83 277.992C347.893 277.929 347.94 277.853 347.97 277.77C350.565 271.77 355.725 267.48 362.49 270.105H362.64H362.73C363.54 270.72 364.29 269.415 363.495 268.875Z" fill="#636D27"/>
<path d="M359.82 264.81L359.7 264.675C359.523 264.539 359.319 264.443 359.102 264.391C358.885 264.339 358.659 264.334 358.44 264.375C351.135 263.685 345.165 271.035 345.105 277.98C345.101 278.086 345.121 278.192 345.163 278.29C345.206 278.387 345.27 278.474 345.351 278.543C345.431 278.613 345.527 278.663 345.63 278.69C345.733 278.717 345.841 278.72 345.945 278.7C346.043 278.776 346.157 278.827 346.279 278.85C346.401 278.873 346.526 278.867 346.645 278.832C346.764 278.797 346.872 278.734 346.962 278.648C347.051 278.563 347.119 278.457 347.16 278.34C348.165 275.265 348.765 271.905 351.09 269.475C352.185 268.356 353.51 267.488 354.973 266.931C356.436 266.375 358.003 266.142 359.565 266.25C360.45 266.31 360.525 265.095 359.82 264.81Z" fill="#746927"/>
<path d="M356.205 261.375C356.055 261.289 355.88 261.257 355.71 261.285C348.345 262.545 345.21 269.385 345.06 276.285C345.06 276.45 345.06 276.615 345.06 276.78C345.06 277.755 346.56 277.74 346.56 276.78C346.563 276.745 346.563 276.71 346.56 276.675C346.56 276.57 346.56 276.45 346.56 276.345C347.055 270.27 350.205 264.63 356.415 262.965C356.626 262.937 356.817 262.827 356.946 262.658C357.076 262.489 357.133 262.276 357.105 262.065C357.077 261.854 356.967 261.663 356.798 261.534C356.629 261.404 356.416 261.347 356.205 261.375Z" fill="#7D7A33"/>
<path d="M343.26 304.125C343.26 303.75 344.52 289.215 344.265 284.91C344.01 280.605 343.77 275.91 343.77 275.91H347.67C347.67 275.91 348.675 301.32 350.205 304.095L343.26 304.125Z" fill="#974C13"/>
<path d="M400.02 308.145L357.705 318.015L369.75 328.845L401.91 310.965L400.02 308.145Z" fill="url(#paint4_linear_2_14)"/>
<path d="M397.395 266.34V266.19C397.29 265.305 398.535 265.245 398.895 265.995V266.085C398.897 266.12 398.897 266.155 398.895 266.19C399.682 272.659 400.047 279.173 399.99 285.69C400.036 285.889 400.001 286.098 399.892 286.271C399.784 286.444 399.611 286.567 399.413 286.612C399.214 286.658 399.005 286.623 398.832 286.515C398.659 286.407 398.536 286.234 398.49 286.035C398.375 286.111 398.242 286.156 398.104 286.165C397.966 286.173 397.828 286.146 397.704 286.086C397.58 286.025 397.474 285.933 397.396 285.819C397.318 285.705 397.271 285.573 397.26 285.435C396.828 279.076 396.873 272.693 397.395 266.34Z" fill="#AB9E5A"/>
<path d="M382.665 281.085C382.665 280.98 382.8 280.92 382.86 280.83C382.837 280.665 382.88 280.498 382.98 280.365C386.625 275.16 393.48 277.365 396.615 281.745C397.501 282.736 398.057 283.979 398.205 285.3C398.31 286.2 397.005 286.245 396.705 285.45C396.616 285.358 396.554 285.244 396.525 285.12C396.27 284.16 395.832 283.258 395.235 282.465C394.019 281.399 392.527 280.697 390.93 280.44C388.92 280.035 385.14 279.63 383.94 281.85C383.505 282.69 382.2 282 382.665 281.085Z" fill="#575C1C"/>
<path d="M381 276C387.195 271.77 397.215 277.335 398.07 284.49C398.087 284.584 398.082 284.681 398.055 284.773C398.027 284.865 397.979 284.95 397.913 285.02C397.848 285.09 397.767 285.143 397.677 285.176C397.587 285.209 397.49 285.221 397.395 285.21C397.319 285.255 397.234 285.283 397.146 285.291C397.058 285.299 396.969 285.288 396.886 285.257C396.803 285.227 396.727 285.179 396.665 285.117C396.602 285.054 396.555 284.978 396.525 284.895C393.93 278.895 388.77 274.605 382.005 277.23H381.855H381.765C381 277.86 380.235 276.555 381 276Z" fill="#636D27"/>
<path d="M384.705 271.95L384.825 271.815C385.002 271.679 385.206 271.583 385.423 271.531C385.64 271.479 385.866 271.474 386.085 271.515C393.39 270.825 399.36 278.175 399.42 285.12C399.424 285.226 399.404 285.332 399.362 285.43C399.319 285.527 399.255 285.614 399.174 285.683C399.094 285.753 398.998 285.803 398.895 285.83C398.792 285.857 398.684 285.86 398.58 285.84C398.482 285.916 398.368 285.967 398.246 285.99C398.124 286.013 397.999 286.007 397.88 285.972C397.761 285.937 397.653 285.874 397.563 285.788C397.474 285.703 397.406 285.597 397.365 285.48C396.36 282.405 395.76 279.045 393.435 276.615C392.34 275.496 391.015 274.628 389.552 274.071C388.089 273.515 386.522 273.282 384.96 273.39C384 273.45 384 272.235 384.705 271.95Z" fill="#746927"/>
<path d="M388.32 268.5C388.47 268.414 388.645 268.382 388.815 268.41C396.18 269.67 399.315 276.51 399.465 283.41C399.465 283.575 399.465 283.74 399.465 283.905C399.465 284.88 397.965 284.865 397.965 283.905C397.962 283.87 397.962 283.835 397.965 283.8C397.965 283.695 397.965 283.575 397.965 283.47C397.47 277.395 394.32 271.755 388.11 270.09C387.899 270.062 387.708 269.952 387.579 269.783C387.449 269.614 387.392 269.401 387.42 269.19C387.448 268.979 387.558 268.788 387.727 268.659C387.896 268.529 388.109 268.472 388.32 268.5Z" fill="#7D7A33"/>
<path d="M398.835 266.34V266.19C398.94 265.305 397.695 265.245 397.335 265.995V266.085C397.333 266.12 397.333 266.155 397.335 266.19C396.548 272.659 396.183 279.173 396.24 285.69C396.194 285.889 396.229 286.098 396.338 286.271C396.446 286.444 396.619 286.567 396.817 286.612C397.016 286.658 397.225 286.623 397.398 286.515C397.571 286.407 397.694 286.234 397.74 286.035C397.855 286.111 397.988 286.156 398.126 286.165C398.264 286.173 398.402 286.146 398.526 286.086C398.65 286.025 398.756 285.933 398.834 285.819C398.912 285.705 398.959 285.573 398.97 285.435C399.402 279.076 399.357 272.693 398.835 266.34Z" fill="#AB9E5A"/>
<path d="M413.565 281.085C413.565 280.98 413.43 280.92 413.37 280.83C413.393 280.665 413.35 280.498 413.25 280.365C409.605 275.16 402.75 277.365 399.615 281.745C398.729 282.736 398.173 283.979 398.025 285.3C397.92 286.2 399.225 286.245 399.525 285.45C399.614 285.358 399.676 285.244 399.705 285.12C399.96 284.16 400.398 283.258 400.995 282.465C402.211 281.399 403.703 280.697 405.3 280.44C407.31 280.035 411.09 279.63 412.29 281.85C412.725 282.69 414 282 413.565 281.085Z" fill="#575C1C"/>
<path d="M415.2 276C409.005 271.77 398.985 277.335 398.13 284.49C398.113 284.584 398.118 284.681 398.145 284.773C398.173 284.865 398.221 284.95 398.287 285.02C398.352 285.09 398.433 285.143 398.523 285.176C398.613 285.209 398.71 285.221 398.805 285.21C398.881 285.255 398.966 285.283 399.054 285.291C399.142 285.299 399.231 285.288 399.314 285.257C399.397 285.227 399.473 285.179 399.535 285.117C399.597 285.054 399.645 284.978 399.675 284.895C402.27 278.895 407.43 274.605 414.195 277.23H414.345H414.435C415.245 277.86 415.995 276.555 415.2 276Z" fill="#636D27"/>
<path d="M411.525 271.95L411.405 271.815C411.228 271.679 411.024 271.583 410.807 271.531C410.59 271.479 410.364 271.474 410.145 271.515C402.84 270.825 396.87 278.175 396.81 285.12C396.806 285.226 396.826 285.332 396.868 285.43C396.911 285.527 396.975 285.614 397.056 285.683C397.136 285.753 397.232 285.803 397.335 285.83C397.438 285.857 397.546 285.86 397.65 285.84C397.748 285.916 397.862 285.967 397.984 285.99C398.106 286.013 398.231 286.007 398.35 285.972C398.469 285.937 398.577 285.874 398.667 285.788C398.756 285.703 398.824 285.597 398.865 285.48C399.87 282.405 400.47 279.045 402.795 276.615C403.89 275.496 405.215 274.628 406.678 274.071C408.141 273.515 409.708 273.282 411.27 273.39C412.155 273.45 412.23 272.235 411.525 271.95Z" fill="#746927"/>
<path d="M407.91 268.5C407.76 268.414 407.585 268.382 407.415 268.41C400.05 269.67 396.915 276.51 396.765 283.41C396.765 283.575 396.765 283.74 396.765 283.905C396.765 284.88 398.265 284.865 398.265 283.905C398.268 283.87 398.268 283.835 398.265 283.8C398.265 283.695 398.265 283.575 398.265 283.47C398.76 277.395 401.91 271.755 408.12 270.09C408.331 270.062 408.522 269.952 408.651 269.783C408.781 269.614 408.838 269.401 408.81 269.19C408.782 268.979 408.672 268.788 408.503 268.659C408.334 268.529 408.121 268.472 407.91 268.5Z" fill="#7D7A33"/>
<path d="M394.965 311.265C394.965 310.89 396.225 296.355 395.97 292.05C395.715 287.745 395.475 283.05 395.475 283.05H399.375C399.375 283.05 400.38 308.46 401.91 311.235L394.965 311.265Z" fill="#974C13"/>
<path d="M362.97 325.38L320.655 335.25L332.7 346.08L364.875 328.215L362.97 325.38Z" fill="url(#paint5_linear_2_14)"/>
<path d="M360.345 283.59V283.5C360.24 282.615 361.485 282.555 361.845 283.305V283.395C361.847 283.43 361.847 283.465 361.845 283.5C362.632 289.969 362.997 296.483 362.94 303C362.986 303.199 362.951 303.408 362.842 303.581C362.734 303.754 362.561 303.877 362.362 303.923C362.164 303.968 361.955 303.933 361.782 303.825C361.609 303.716 361.486 303.544 361.44 303.345C361.325 303.421 361.192 303.466 361.054 303.475C360.916 303.483 360.778 303.456 360.654 303.396C360.53 303.335 360.424 303.243 360.346 303.129C360.268 303.015 360.221 302.883 360.21 302.745C359.775 296.366 359.82 289.963 360.345 283.59Z" fill="#AB9E5A"/>
<path d="M345.615 298.32C345.615 298.215 345.75 298.155 345.81 298.065C345.787 297.9 345.83 297.733 345.93 297.6C349.575 292.395 356.43 294.6 359.565 298.98C360.451 299.971 361.007 301.214 361.155 302.535C361.26 303.435 359.955 303.48 359.655 302.685C359.566 302.593 359.504 302.479 359.475 302.355C359.22 301.395 358.782 300.493 358.185 299.7C356.969 298.634 355.477 297.932 353.88 297.675C351.87 297.27 348.09 296.865 346.89 299.085C346.5 300 345.15 299.175 345.615 298.32Z" fill="#575C1C"/>
<path d="M343.98 293.25C350.175 289.02 360.195 294.585 361.05 301.74C361.067 301.834 361.062 301.931 361.034 302.023C361.007 302.115 360.959 302.2 360.893 302.27C360.828 302.34 360.747 302.393 360.657 302.426C360.567 302.459 360.47 302.471 360.375 302.46C360.299 302.505 360.214 302.533 360.126 302.541C360.038 302.549 359.949 302.538 359.866 302.507C359.783 302.477 359.707 302.429 359.645 302.367C359.583 302.304 359.535 302.228 359.505 302.145C356.91 296.145 351.75 291.855 344.985 294.48H344.835H344.745C343.935 295.11 343.185 293.805 343.98 293.25Z" fill="#636D27"/>
<path d="M347.655 289.2L347.775 289.065C347.952 288.929 348.156 288.833 348.373 288.781C348.59 288.729 348.816 288.724 349.035 288.765C356.34 288.075 362.31 295.425 362.37 302.37C362.374 302.476 362.354 302.582 362.312 302.68C362.269 302.777 362.205 302.864 362.124 302.933C362.044 303.003 361.948 303.053 361.845 303.08C361.742 303.107 361.634 303.11 361.53 303.09C361.432 303.166 361.318 303.217 361.196 303.24C361.074 303.263 360.949 303.257 360.83 303.222C360.711 303.187 360.603 303.124 360.513 303.038C360.424 302.953 360.356 302.847 360.315 302.73C359.31 299.655 358.71 296.295 356.385 293.865C355.29 292.746 353.965 291.878 352.502 291.321C351.039 290.765 349.472 290.532 347.91 290.64C347.025 290.685 346.95 289.5 347.655 289.2Z" fill="#746927"/>
<path d="M351.27 285.765C351.42 285.679 351.595 285.647 351.765 285.675C359.13 286.935 362.265 293.775 362.415 300.675C362.415 300.84 362.415 301.005 362.415 301.17C362.415 302.145 360.915 302.13 360.915 301.17C360.912 301.135 360.912 301.1 360.915 301.065C360.915 300.96 360.915 300.84 360.915 300.735C360.42 294.66 357.27 289.02 351.06 287.355C350.849 287.327 350.658 287.217 350.529 287.048C350.399 286.879 350.342 286.666 350.37 286.455C350.398 286.244 350.508 286.053 350.677 285.924C350.846 285.794 351.059 285.737 351.27 285.765Z" fill="#7D7A33"/>
<path d="M361.785 283.59V283.5C361.89 282.615 360.645 282.555 360.285 283.305V283.395C360.283 283.43 360.283 283.465 360.285 283.5C359.498 289.969 359.133 296.483 359.19 303C359.144 303.199 359.179 303.408 359.288 303.581C359.396 303.754 359.569 303.877 359.767 303.923C359.966 303.968 360.175 303.933 360.348 303.825C360.521 303.716 360.644 303.544 360.69 303.345C360.805 303.421 360.938 303.466 361.076 303.475C361.214 303.483 361.352 303.456 361.476 303.396C361.6 303.335 361.706 303.243 361.784 303.129C361.862 303.015 361.909 302.883 361.92 302.745C362.355 296.366 362.31 289.963 361.785 283.59Z" fill="#AB9E5A"/>
<path d="M376.5 298.32C376.5 298.215 376.365 298.155 376.305 298.065C376.328 297.9 376.285 297.733 376.185 297.6C372.54 292.395 365.685 294.6 362.55 298.98C361.664 299.971 361.108 301.214 360.96 302.535C360.855 303.435 362.16 303.48 362.46 302.685C362.549 302.593 362.611 302.479 362.64 302.355C362.895 301.395 363.333 300.493 363.93 299.7C365.146 298.634 366.638 297.932 368.235 297.675C370.245 297.27 374.025 296.865 375.225 299.085C375.675 300 376.98 299.175 376.5 298.32Z" fill="#575C1C"/>
<path d="M378.15 293.25C371.955 289.02 361.935 294.585 361.08 301.74C361.063 301.834 361.068 301.931 361.096 302.023C361.123 302.115 361.171 302.2 361.237 302.27C361.302 302.34 361.383 302.393 361.473 302.426C361.563 302.459 361.66 302.471 361.755 302.46C361.831 302.505 361.916 302.533 362.004 302.541C362.092 302.549 362.181 302.538 362.264 302.507C362.347 302.477 362.423 302.429 362.485 302.367C362.548 302.304 362.595 302.228 362.625 302.145C365.22 296.145 370.38 291.855 377.145 294.48H377.295H377.385C378.195 295.11 378.945 293.805 378.15 293.25Z" fill="#636D27"/>
<path d="M374.475 289.2L374.355 289.065C374.178 288.929 373.974 288.833 373.757 288.781C373.54 288.729 373.314 288.724 373.095 288.765C365.79 288.075 359.82 295.425 359.76 302.37C359.756 302.476 359.776 302.582 359.818 302.68C359.861 302.777 359.925 302.864 360.006 302.933C360.086 303.003 360.182 303.053 360.285 303.08C360.388 303.107 360.496 303.11 360.6 303.09C360.698 303.166 360.812 303.217 360.934 303.24C361.056 303.263 361.181 303.257 361.3 303.222C361.419 303.187 361.527 303.124 361.617 303.038C361.706 302.953 361.774 302.847 361.815 302.73C362.82 299.655 363.42 296.295 365.745 293.865C366.84 292.746 368.165 291.878 369.628 291.321C371.091 290.765 372.658 290.532 374.22 290.64C375.105 290.685 375.18 289.5 374.475 289.2Z" fill="#746927"/>
<path d="M370.86 285.765C370.71 285.679 370.535 285.647 370.365 285.675C363 286.935 359.865 293.775 359.715 300.675C359.715 300.84 359.715 301.005 359.715 301.17C359.715 302.145 361.215 302.13 361.215 301.17C361.218 301.135 361.218 301.1 361.215 301.065C361.215 300.96 361.215 300.84 361.215 300.735C361.71 294.66 364.86 289.02 371.07 287.355C371.281 287.327 371.472 287.217 371.601 287.048C371.731 286.879 371.788 286.666 371.76 286.455C371.732 286.244 371.622 286.053 371.453 285.924C371.284 285.794 371.071 285.737 370.86 285.765Z" fill="#7D7A33"/>
<path d="M357.915 328.5C357.915 328.125 359.175 313.59 358.92 309.285C358.665 304.98 358.425 300.285 358.425 300.285H362.325C362.325 300.285 363.33 325.695 364.86 328.47L357.915 328.5Z" fill="#974C13"/>
<defs>
<linearGradient id="paint0_linear_2_14" x1="300.942" y1="87.5921" x2="300.942" y2="414.583" gradientUnits="userSpaceOnUse">
<stop stop-color="#FFC94E"/>
<stop offset="1" stop-color="#FFC94E" stop-opacity="0"/>
</linearGradient>
<linearGradient id="paint1_linear_2_14" x1="181.845" y1="328.98" x2="221.91" y2="283.65" gradientUnits="userSpaceOnUse">
<stop stop-opacity="0"/>
<stop offset="0.99" stop-color="#552800"/>
</linearGradient>
<linearGradient id="paint2_linear_2_14" x1="474.315" y1="281.82" x2="503.88" y2="254.01" gradientUnits="userSpaceOnUse">
<stop stop-opacity="0"/>
<stop offset="0.99" stop-color="#552800"/>
</linearGradient>
<linearGradient id="paint3_linear_2_14" x1="306" y1="311.355" x2="350.205" y2="311.355" gradientUnits="userSpaceOnUse">
<stop offset="0.01" stop-color="#FCCA4C"/>
<stop offset="1" stop-color="#DE9F3B"/>
</linearGradient>
<linearGradient id="paint4_linear_2_14" x1="357.705" y1="318.495" x2="401.91" y2="318.495" gradientUnits="userSpaceOnUse">
<stop offset="0.01" stop-color="#FCCA4C"/>
<stop offset="1" stop-color="#DE9F3B"/>
</linearGradient>
<linearGradient id="paint5_linear_2_14" x1="320.655" y1="335.73" x2="364.875" y2="335.73" gradientUnits="userSpaceOnUse">
<stop offset="0.01" stop-color="#FCCA4C"/>
<stop offset="1" stop-color="#DE9F3B"/>
</linearGradient>
</defs>
</svg>
