<?xml version="1.0" encoding="UTF-8" standalone="no" ?>
<!DOCTYPE svg PUBLIC "-//W3C//DTD SVG 1.1//EN" "http://www.w3.org/Graphics/SVG/1.1/DTD/svg11.dtd">
<svg xmlns="http://www.w3.org/2000/svg" xmlns:xlink="http://www.w3.org/1999/xlink" version="1.1" width="20" height="20" viewBox="0 0 1080 1080" xml:space="preserve">
<desc>Created with Fabric.js 5.2.4</desc>
<defs>
</defs>
<g transform="matrix(1 0 0 1 540 540)" id="a1098df2-5bff-44d2-b51b-9a61a6132229"  >
<rect style="stroke: none; stroke-width: 1; stroke-dasharray: none; stroke-linecap: butt; stroke-dashoffset: 0; stroke-linejoin: miter; stroke-miterlimit: 4; fill: rgb(255,255,255); fill-rule: nonzero; opacity: 1; visibility: hidden;" vector-effect="non-scaling-stroke"  x="-540" y="-540" rx="0" ry="0" width="1080" height="1080" />
</g>
<g transform="matrix(1 0 0 1 540 540)" id="7b6bcbd2-03cc-4c21-a4b7-6f76a3e6cb52"  >
</g>
<g transform="matrix(1 0 0 1 540 540)"  >
<g style="" vector-effect="non-scaling-stroke"   >
		<g transform="matrix(0.33 0 0 0.33 8.43 67.45)" id="color_x5F_2"  >
<path style="stroke: none; stroke-width: 1; stroke-dasharray: none; stroke-linecap: butt; stroke-dashoffset: 0; stroke-linejoin: miter; stroke-miterlimit: 4; fill: rgb(255,255,255); fill-rule: nonzero; opacity: 1;" vector-effect="non-scaling-stroke"  transform=" translate(-325.28, -502.36)" d="M 478.458 474.416 C 433.40900000000005 520.087 370.841 548.432 301.622 548.432 C 255.07600000000002 548.432 211.568 535.564 174.33700000000002 513.2810000000001 C 155.69500000000002 509.7800000000001 139.419 502.41200000000003 127.05500000000002 489.44200000000006 C 127.05500000000002 489.44200000000006 151.747 500.76400000000007 190.56400000000002 502.43700000000007 C 210.776 502.25000000000006 232.752 500.19700000000006 256.369 495.5280000000001 C 288.01700000000005 487.45700000000005 312.41 479.18500000000006 334.63100000000003 472.3180000000001 C 355.992 465.1420000000001 375.478 460.72300000000007 393.25600000000003 458.38400000000007 C 393.59200000000004 458.33900000000006 393.92400000000004 458.28800000000007 394.261 458.2440000000001 C 397.41200000000003 457.8420000000001 400.497 457.5170000000001 403.538 457.24500000000006 C 403.801 457.22200000000004 404.06 457.1940000000001 404.32300000000004 457.17100000000005 C 411.119 456.58400000000006 417.63800000000003 456.31100000000004 423.896 456.31600000000003 C 424.463 456.312 424.99600000000004 456.281 425.56800000000004 456.281 C 426.26400000000007 456.281 426.92100000000005 456.303 427.607 456.308 C 427.93600000000004 456.31399999999996 428.27000000000004 456.313 428.59700000000004 456.32099999999997 C 503.874 457.17999999999995 523.495 489.5 523.495 489.5 C 523.495 489.5 508.501 479.668 478.458 474.416 z" stroke-linecap="round" />
</g>
		<g transform="matrix(0.33 0 0 0.33 0 -14.5)" id="color_x5F_1"  >
<path style="stroke: none; stroke-width: 1; stroke-dasharray: none; stroke-linecap: butt; stroke-dashoffset: 0; stroke-linejoin: miter; stroke-miterlimit: 4; fill: rgb(255,255,255); fill-rule: nonzero; opacity: 1;" vector-effect="non-scaling-stroke"  transform=" translate(-300, -256.51)" d="M 478.967 412.065 C 452.05699999999996 405.614 419.731 403.149 381.67699999999996 408.643 C 409.18999999999994 360.155 415.628 308.34399999999994 415.628 308.34399999999994 C 409.954 305.5489999999999 404.746 302.3089999999999 399.74199999999996 298.88699999999994 C 387.10999999999996 389.77699999999993 345.203 423.45199999999994 345.203 423.45199999999994 C 384.07599999999996 365.82599999999996 383.33299999999997 285.87199999999996 383.33299999999997 285.87199999999996 L 383.35699999999997 285.87199999999996 C 343.77 248.75199999999995 329.02599999999995 192.60799999999995 318.467 160.14299999999997 C 315.981 152.49699999999999 316.38599999999997 144.44999999999996 317.971 136.56799999999998 C 318.315 134.85299999999998 318.274 132.99599999999998 317.746 131.08399999999997 C 316.849 127.83299999999997 310.628 125.11399999999998 306.50399999999996 123.79199999999997 L 306.50399999999996 306.77199999999993 C 311.20899999999995 308.69899999999996 314.53 313.30799999999994 314.53 318.70699999999994 C 314.53 325.83599999999996 308.751 331.61499999999995 301.62199999999996 331.61499999999995 C 294.49299999999994 331.61499999999995 288.71399999999994 325.83599999999996 288.71399999999994 318.70699999999994 C 288.71399999999994 313.4839999999999 291.83599999999996 309.0229999999999 296.29699999999997 306.99099999999993 L 296.29699999999997 124.027 C 291.279 125.871 285.051 129.767 285.051 134.325 C 285.051 134.957 285.102 135.576 285.202 136.17999999999998 C 286.617 144.74399999999997 286.996 153.41699999999997 284.281 161.66099999999997 C 270.869 202.37699999999998 251.53900000000002 276.86199999999997 187.61599999999999 308.346 C 187.61599999999999 308.346 194.95 384.256 247.564 444.852 L 249.446 444.852 C 235.124 447.822 221.572 449.65099999999995 208.78 450.61499999999995 C 87.075 461.354 25 395.098 25 395.098 C 44.745999999999995 403.021 63.279 408.822 80.457 413.059 C 63.064 379.142 53.191 340.738 53.191 300 C 53.191 162.795 164.417 51.56800000000001 301.623 51.56800000000001 C 438.82899999999995 51.56800000000001 550.054 162.795 550.054 300 C 550.054 339.233 540.899 376.305 524.691 409.289 C 562.402 433.379 575 461.445 575 461.445 C 538.133 428.614 491.079 415.126 478.967 412.065 z" stroke-linecap="round" />
</g>
</g>
</g>
</svg>